<mxfile host="65bd71144e">
    <diagram id="9kbksqGHN0hTs0AnhhPh" name="Page-1">
        <mxGraphModel dx="1785" dy="751" grid="1" gridSize="10" guides="1" tooltips="1" connect="1" arrows="1" fold="1" page="1" pageScale="1" pageWidth="850" pageHeight="1100" math="0" shadow="0">
            <root>
                <mxCell id="0"/>
                <mxCell id="1" parent="0"/>
                <mxCell id="2" value="" style="whiteSpace=wrap;html=1;" parent="1" vertex="1">
                    <mxGeometry x="60" y="20" width="690" height="650" as="geometry"/>
                </mxCell>
                <mxCell id="3" value="" style="endArrow=none;html=1;entryX=0.001;entryY=0.63;entryDx=0;entryDy=0;entryPerimeter=0;exitX=0.989;exitY=0.614;exitDx=0;exitDy=0;exitPerimeter=0;" parent="1" source="4" target="2" edge="1">
                    <mxGeometry width="50" height="50" relative="1" as="geometry">
                        <mxPoint y="432" as="sourcePoint"/>
                        <mxPoint x="60" y="420.1" as="targetPoint"/>
                        <Array as="points"/>
                    </mxGeometry>
                </mxCell>
                <mxCell id="4" value="i_ext_clk" style="text;html=1;align=center;verticalAlign=middle;resizable=0;points=[];autosize=1;strokeColor=none;fillColor=none;" parent="1" vertex="1">
                    <mxGeometry x="-60" y="411.5" width="70" height="30" as="geometry"/>
                </mxCell>
                <mxCell id="5" value="" style="endArrow=none;html=1;entryX=-0.001;entryY=0.151;entryDx=0;entryDy=0;entryPerimeter=0;exitX=1.015;exitY=0.63;exitDx=0;exitDy=0;exitPerimeter=0;" parent="1" source="6" target="2" edge="1">
                    <mxGeometry width="50" height="50" relative="1" as="geometry">
                        <mxPoint y="121" as="sourcePoint"/>
                        <mxPoint x="71.4399999999996" y="121.03999999999996" as="targetPoint"/>
                    </mxGeometry>
                </mxCell>
                <mxCell id="6" value="i_rst&amp;nbsp;" style="text;html=1;align=center;verticalAlign=middle;resizable=0;points=[];autosize=1;strokeColor=none;fillColor=none;" parent="1" vertex="1">
                    <mxGeometry x="-40" y="100" width="50" height="30" as="geometry"/>
                </mxCell>
                <mxCell id="7" value="" style="endArrow=none;html=1;entryX=0.001;entryY=0.216;entryDx=0;entryDy=0;entryPerimeter=0;exitX=1.006;exitY=0.821;exitDx=0;exitDy=0;exitPerimeter=0;" parent="1" source="8" target="2" edge="1">
                    <mxGeometry width="50" height="50" relative="1" as="geometry">
                        <mxPoint x="21" y="160" as="sourcePoint"/>
                        <mxPoint x="70" y="158" as="targetPoint"/>
                    </mxGeometry>
                </mxCell>
                <mxCell id="8" value="i_wb_cyc(pwd selected?)" style="text;html=1;align=center;verticalAlign=middle;resizable=0;points=[];autosize=1;strokeColor=none;fillColor=none;" parent="1" vertex="1">
                    <mxGeometry x="-150" y="136" width="160" height="30" as="geometry"/>
                </mxCell>
                <mxCell id="9" value="" style="endArrow=none;html=1;entryX=0;entryY=0.296;entryDx=0;entryDy=0;entryPerimeter=0;" parent="1" source="10" target="2" edge="1">
                    <mxGeometry width="50" height="50" relative="1" as="geometry">
                        <mxPoint y="198" as="sourcePoint"/>
                        <mxPoint x="70.47999999999956" y="197.3599999999999" as="targetPoint"/>
                    </mxGeometry>
                </mxCell>
                <mxCell id="10" value="i_wb_stb(valid data?)" style="text;html=1;align=center;verticalAlign=middle;resizable=0;points=[];autosize=1;strokeColor=none;fillColor=none;" parent="1" vertex="1">
                    <mxGeometry x="-130" y="200" width="140" height="30" as="geometry"/>
                </mxCell>
                <mxCell id="11" value="" style="endArrow=none;html=1;entryX=0;entryY=0.364;entryDx=0;entryDy=0;entryPerimeter=0;exitX=1.015;exitY=0.772;exitDx=0;exitDy=0;exitPerimeter=0;" parent="1" source="12" target="2" edge="1">
                    <mxGeometry width="50" height="50" relative="1" as="geometry">
                        <mxPoint y="238" as="sourcePoint"/>
                        <mxPoint x="70" y="237.67999999999995" as="targetPoint"/>
                    </mxGeometry>
                </mxCell>
                <mxCell id="12" value="i_wb_we" style="text;html=1;align=center;verticalAlign=middle;resizable=0;points=[];autosize=1;strokeColor=none;fillColor=none;" parent="1" vertex="1">
                    <mxGeometry x="-60" y="233" width="70" height="30" as="geometry"/>
                </mxCell>
                <mxCell id="13" value="" style="endArrow=none;html=1;entryX=0;entryY=0.442;entryDx=0;entryDy=0;entryPerimeter=0;exitX=0.983;exitY=0.517;exitDx=0;exitDy=0;exitPerimeter=0;" parent="1" source="14" target="2" edge="1">
                    <mxGeometry width="50" height="50" relative="1" as="geometry">
                        <mxPoint y="278" as="sourcePoint"/>
                        <mxPoint x="107" y="280" as="targetPoint"/>
                    </mxGeometry>
                </mxCell>
                <mxCell id="14" value="i_wb_adr" style="text;html=1;align=center;verticalAlign=middle;resizable=0;points=[];autosize=1;strokeColor=none;fillColor=none;" parent="1" vertex="1">
                    <mxGeometry x="-60" y="293" width="70" height="30" as="geometry"/>
                </mxCell>
                <mxCell id="15" value="" style="endArrow=none;html=1;entryX=0.991;entryY=0.894;entryDx=0;entryDy=0;entryPerimeter=0;" parent="1" edge="1">
                    <mxGeometry width="50" height="50" relative="1" as="geometry">
                        <mxPoint x="20.36" y="314.59" as="sourcePoint"/>
                        <mxPoint x="34.999999999999986" y="301.40999999999997" as="targetPoint"/>
                    </mxGeometry>
                </mxCell>
                <mxCell id="16" value="16" style="text;html=1;align=center;verticalAlign=middle;resizable=0;points=[];autosize=1;strokeColor=none;fillColor=none;" parent="1" vertex="1">
                    <mxGeometry y="280" width="40" height="30" as="geometry"/>
                </mxCell>
                <mxCell id="17" value="" style="endArrow=none;html=1;entryX=0;entryY=0.509;entryDx=0;entryDy=0;entryPerimeter=0;exitX=0.985;exitY=0.742;exitDx=0;exitDy=0;exitPerimeter=0;" parent="1" source="20" target="2" edge="1">
                    <mxGeometry width="50" height="50" relative="1" as="geometry">
                        <mxPoint y="315" as="sourcePoint"/>
                        <mxPoint x="70" y="315" as="targetPoint"/>
                    </mxGeometry>
                </mxCell>
                <mxCell id="18" value="" style="endArrow=none;html=1;entryX=1.029;entryY=0.611;entryDx=0;entryDy=0;entryPerimeter=0;" parent="1" target="19" edge="1">
                    <mxGeometry width="50" height="50" relative="1" as="geometry">
                        <mxPoint x="25" y="360" as="sourcePoint"/>
                        <mxPoint x="45" y="340" as="targetPoint"/>
                    </mxGeometry>
                </mxCell>
                <mxCell id="19" value="16" style="text;html=1;align=center;verticalAlign=middle;resizable=0;points=[];autosize=1;strokeColor=none;fillColor=none;" parent="1" vertex="1">
                    <mxGeometry y="326.5" width="40" height="30" as="geometry"/>
                </mxCell>
                <mxCell id="20" value="i_wb_data" style="text;html=1;align=center;verticalAlign=middle;resizable=0;points=[];autosize=1;strokeColor=none;fillColor=none;" parent="1" vertex="1">
                    <mxGeometry x="-70" y="330" width="80" height="30" as="geometry"/>
                </mxCell>
                <mxCell id="27" value="" style="endArrow=none;html=1;entryX=1;entryY=0.5;entryDx=0;entryDy=-5;entryPerimeter=0;exitX=0.023;exitY=0.495;exitDx=0;exitDy=0;exitPerimeter=0;" parent="1" source="28" target="68" edge="1">
                    <mxGeometry width="50" height="50" relative="1" as="geometry">
                        <mxPoint x="750" y="350" as="sourcePoint"/>
                        <mxPoint x="560" y="340" as="targetPoint"/>
                    </mxGeometry>
                </mxCell>
                <mxCell id="28" value="o_pwm" style="text;html=1;align=center;verticalAlign=middle;resizable=0;points=[];autosize=1;strokeColor=none;fillColor=none;" parent="1" vertex="1">
                    <mxGeometry x="770" y="380" width="60" height="30" as="geometry"/>
                </mxCell>
                <mxCell id="29" value="" style="endArrow=none;html=1;entryX=0.001;entryY=0.035;entryDx=0;entryDy=0;entryPerimeter=0;exitX=0.998;exitY=0.759;exitDx=0;exitDy=0;exitPerimeter=0;" parent="1" source="31" edge="1">
                    <mxGeometry width="50" height="50" relative="1" as="geometry">
                        <mxPoint x="-0.65" y="80" as="sourcePoint"/>
                        <mxPoint x="60.00000000000009" y="62.75" as="targetPoint"/>
                    </mxGeometry>
                </mxCell>
                <mxCell id="31" value="i_clk" style="text;html=1;align=center;verticalAlign=middle;resizable=0;points=[];autosize=1;strokeColor=none;fillColor=none;" parent="1" vertex="1">
                    <mxGeometry x="-40" y="40" width="50" height="30" as="geometry"/>
                </mxCell>
                <mxCell id="35" value="" style="endArrow=none;html=1;entryX=0.001;entryY=0.746;entryDx=0;entryDy=0;entryPerimeter=0;exitX=1.025;exitY=0.69;exitDx=0;exitDy=0;exitPerimeter=0;" parent="1" source="38" target="2" edge="1">
                    <mxGeometry width="50" height="50" relative="1" as="geometry">
                        <mxPoint y="442.72" as="sourcePoint"/>
                        <mxPoint x="70" y="442.72" as="targetPoint"/>
                    </mxGeometry>
                </mxCell>
                <mxCell id="36" value="" style="endArrow=none;html=1;" parent="1" edge="1">
                    <mxGeometry width="50" height="50" relative="1" as="geometry">
                        <mxPoint x="20" y="515" as="sourcePoint"/>
                        <mxPoint x="40" y="495" as="targetPoint"/>
                    </mxGeometry>
                </mxCell>
                <mxCell id="37" value="16" style="text;html=1;align=center;verticalAlign=middle;resizable=0;points=[];autosize=1;strokeColor=none;fillColor=none;" parent="1" vertex="1">
                    <mxGeometry y="474" width="40" height="30" as="geometry"/>
                </mxCell>
                <mxCell id="38" value="i_DC" style="text;html=1;align=center;verticalAlign=middle;resizable=0;points=[];autosize=1;strokeColor=none;fillColor=none;" parent="1" vertex="1">
                    <mxGeometry x="-40" y="485" width="50" height="30" as="geometry"/>
                </mxCell>
                <mxCell id="39" value="" style="endArrow=none;html=1;entryX=-0.001;entryY=0.799;entryDx=0;entryDy=0;entryPerimeter=0;exitX=1;exitY=0.58;exitDx=0;exitDy=0;exitPerimeter=0;" parent="1" source="40" target="2" edge="1">
                    <mxGeometry width="50" height="50" relative="1" as="geometry">
                        <mxPoint y="473" as="sourcePoint"/>
                        <mxPoint x="110" y="473" as="targetPoint"/>
                    </mxGeometry>
                </mxCell>
                <mxCell id="40" value="i_DC_valid" style="text;html=1;align=center;verticalAlign=middle;resizable=0;points=[];autosize=1;strokeColor=none;fillColor=none;" parent="1" vertex="1">
                    <mxGeometry x="-70" y="523" width="80" height="30" as="geometry"/>
                </mxCell>
                <mxCell id="76" value="timer" style="whiteSpace=wrap;html=1;aspect=fixed;fillColor=#fff2cc;strokeColor=#d6b656;" parent="1" vertex="1">
                    <mxGeometry x="490" y="254.5" width="157" height="157" as="geometry"/>
                </mxCell>
                <mxCell id="85" value="wb_interface" style="whiteSpace=wrap;html=1;fillColor=#e1d5e7;strokeColor=#9673a6;" parent="1" vertex="1">
                    <mxGeometry x="110" y="60" width="200" height="250" as="geometry"/>
                </mxCell>
                <mxCell id="86" value="" style="endArrow=none;html=1;entryX=-0.001;entryY=0.066;entryDx=0;entryDy=0;entryPerimeter=0;exitX=0.003;exitY=0.058;exitDx=0;exitDy=0;exitPerimeter=0;" parent="1" source="85" target="2" edge="1">
                    <mxGeometry width="50" height="50" relative="1" as="geometry">
                        <mxPoint x="120" y="170" as="sourcePoint"/>
                        <mxPoint x="170" y="120" as="targetPoint"/>
                    </mxGeometry>
                </mxCell>
                <mxCell id="90" value="" style="endArrow=none;html=1;entryX=-0.001;entryY=0.152;entryDx=0;entryDy=0;entryPerimeter=0;exitX=0;exitY=0.323;exitDx=0;exitDy=0;exitPerimeter=0;" parent="1" source="85" target="2" edge="1">
                    <mxGeometry width="50" height="50" relative="1" as="geometry">
                        <mxPoint x="130" y="200" as="sourcePoint"/>
                        <mxPoint x="180" y="150" as="targetPoint"/>
                    </mxGeometry>
                </mxCell>
                <mxCell id="91" value="" style="endArrow=none;html=1;exitX=0.004;exitY=0.577;exitDx=0;exitDy=0;exitPerimeter=0;entryX=0.997;entryY=0.256;entryDx=0;entryDy=0;entryPerimeter=0;" parent="1" source="92" target="85" edge="1">
                    <mxGeometry width="50" height="50" relative="1" as="geometry">
                        <mxPoint x="181" y="160" as="sourcePoint"/>
                        <mxPoint x="347" y="107" as="targetPoint"/>
                    </mxGeometry>
                </mxCell>
                <mxCell id="92" value="o_reg_re" style="text;html=1;align=center;verticalAlign=middle;resizable=0;points=[];autosize=1;strokeColor=none;fillColor=none;" parent="1" vertex="1">
                    <mxGeometry x="345" y="106" width="70" height="30" as="geometry"/>
                </mxCell>
                <mxCell id="99" value="" style="endArrow=none;html=1;exitX=0;exitY=0.216;exitDx=0;exitDy=0;exitPerimeter=0;entryX=0;entryY=0.5;entryDx=0;entryDy=0;" parent="1" source="2" target="85" edge="1">
                    <mxGeometry width="50" height="50" relative="1" as="geometry">
                        <mxPoint x="90" y="170" as="sourcePoint"/>
                        <mxPoint x="140" y="120" as="targetPoint"/>
                    </mxGeometry>
                </mxCell>
                <mxCell id="100" value="" style="endArrow=none;html=1;exitX=-0.001;exitY=0.297;exitDx=0;exitDy=0;exitPerimeter=0;entryX=0.001;entryY=0.59;entryDx=0;entryDy=0;entryPerimeter=0;" parent="1" source="2" target="85" edge="1">
                    <mxGeometry width="50" height="50" relative="1" as="geometry">
                        <mxPoint x="90" y="170" as="sourcePoint"/>
                        <mxPoint x="140" y="120" as="targetPoint"/>
                    </mxGeometry>
                </mxCell>
                <mxCell id="101" value="" style="endArrow=none;html=1;exitX=0;exitY=0.364;exitDx=0;exitDy=0;exitPerimeter=0;entryX=0;entryY=0.721;entryDx=0;entryDy=0;entryPerimeter=0;" parent="1" source="2" target="85" edge="1">
                    <mxGeometry width="50" height="50" relative="1" as="geometry">
                        <mxPoint x="120" y="260" as="sourcePoint"/>
                        <mxPoint x="170" y="210" as="targetPoint"/>
                    </mxGeometry>
                </mxCell>
                <mxCell id="102" value="" style="endArrow=none;html=1;exitX=0.004;exitY=0.577;exitDx=0;exitDy=0;exitPerimeter=0;entryX=1.001;entryY=0.349;entryDx=0;entryDy=0;entryPerimeter=0;" parent="1" source="103" target="85" edge="1">
                    <mxGeometry width="50" height="50" relative="1" as="geometry">
                        <mxPoint x="180" y="180" as="sourcePoint"/>
                        <mxPoint x="346" y="128" as="targetPoint"/>
                    </mxGeometry>
                </mxCell>
                <mxCell id="106" value="" style="endArrow=none;html=1;exitX=0;exitY=0.442;exitDx=0;exitDy=0;exitPerimeter=0;entryX=0.002;entryY=0.769;entryDx=0;entryDy=0;entryPerimeter=0;" parent="1" source="2" target="85" edge="1">
                    <mxGeometry width="50" height="50" relative="1" as="geometry">
                        <mxPoint x="140" y="250" as="sourcePoint"/>
                        <mxPoint x="190" y="200" as="targetPoint"/>
                    </mxGeometry>
                </mxCell>
                <mxCell id="108" value="o_reg_adr" style="text;html=1;align=center;verticalAlign=middle;resizable=0;points=[];autosize=1;strokeColor=none;fillColor=none;" parent="1" vertex="1">
                    <mxGeometry x="340" y="152" width="80" height="30" as="geometry"/>
                </mxCell>
                <mxCell id="118" value="" style="endArrow=none;html=1;exitX=0;exitY=0.509;exitDx=0;exitDy=0;exitPerimeter=0;entryX=-0.002;entryY=0.861;entryDx=0;entryDy=0;entryPerimeter=0;" parent="1" source="2" target="85" edge="1">
                    <mxGeometry width="50" height="50" relative="1" as="geometry">
                        <mxPoint x="180" y="340" as="sourcePoint"/>
                        <mxPoint x="230" y="290" as="targetPoint"/>
                    </mxGeometry>
                </mxCell>
                <mxCell id="120" value="" style="group" parent="1" vertex="1" connectable="0">
                    <mxGeometry x="300" y="146" width="45" height="32" as="geometry"/>
                </mxCell>
                <mxCell id="107" value="" style="endArrow=none;html=1;exitX=0.004;exitY=0.577;exitDx=0;exitDy=0;exitPerimeter=0;entryX=1.003;entryY=0.475;entryDx=0;entryDy=0;entryPerimeter=0;" parent="120" edge="1">
                    <mxGeometry width="50" height="50" relative="1" as="geometry">
                        <mxPoint x="44.99999999999983" y="26.779999999999973" as="sourcePoint"/>
                        <mxPoint x="10.439999999999884" y="27.21999999999997" as="targetPoint"/>
                    </mxGeometry>
                </mxCell>
                <mxCell id="112" value="16" style="text;html=1;align=center;verticalAlign=middle;resizable=0;points=[];autosize=1;strokeColor=none;fillColor=none;imageWidth=20;imageHeight=20;" parent="120" vertex="1">
                    <mxGeometry width="40" height="30" as="geometry"/>
                </mxCell>
                <mxCell id="119" value="" style="endArrow=none;html=1;" parent="120" edge="1">
                    <mxGeometry width="50" height="50" relative="1" as="geometry">
                        <mxPoint x="21" y="32" as="sourcePoint"/>
                        <mxPoint x="31" y="22" as="targetPoint"/>
                    </mxGeometry>
                </mxCell>
                <mxCell id="121" value="o_wb_data" style="text;html=1;align=center;verticalAlign=middle;resizable=0;points=[];autosize=1;strokeColor=none;fillColor=none;" parent="1" vertex="1">
                    <mxGeometry x="342.5" y="239" width="80" height="30" as="geometry"/>
                </mxCell>
                <mxCell id="122" value="" style="group" parent="1" vertex="1" connectable="0">
                    <mxGeometry x="300" y="233" width="44.99999999999983" height="32" as="geometry"/>
                </mxCell>
                <mxCell id="123" value="" style="endArrow=none;html=1;exitX=0.004;exitY=0.577;exitDx=0;exitDy=0;exitPerimeter=0;entryX=1.003;entryY=0.475;entryDx=0;entryDy=0;entryPerimeter=0;" parent="122" edge="1">
                    <mxGeometry width="50" height="50" relative="1" as="geometry">
                        <mxPoint x="44.99999999999983" y="26.779999999999973" as="sourcePoint"/>
                        <mxPoint x="10.439999999999884" y="27.21999999999997" as="targetPoint"/>
                    </mxGeometry>
                </mxCell>
                <mxCell id="124" value="16" style="text;html=1;align=center;verticalAlign=middle;resizable=0;points=[];autosize=1;strokeColor=none;fillColor=none;imageWidth=20;imageHeight=20;" parent="122" vertex="1">
                    <mxGeometry width="40" height="30" as="geometry"/>
                </mxCell>
                <mxCell id="125" value="" style="endArrow=none;html=1;" parent="122" edge="1">
                    <mxGeometry width="50" height="50" relative="1" as="geometry">
                        <mxPoint x="21" y="32" as="sourcePoint"/>
                        <mxPoint x="31" y="22" as="targetPoint"/>
                    </mxGeometry>
                </mxCell>
                <mxCell id="140" value="" style="endArrow=none;html=1;exitX=0.004;exitY=0.577;exitDx=0;exitDy=0;exitPerimeter=0;entryX=1;entryY=0.685;entryDx=0;entryDy=0;entryPerimeter=0;" parent="1" source="141" target="85" edge="1">
                    <mxGeometry width="50" height="50" relative="1" as="geometry">
                        <mxPoint x="140" y="265" as="sourcePoint"/>
                        <mxPoint x="310" y="221" as="targetPoint"/>
                    </mxGeometry>
                </mxCell>
                <mxCell id="141" value="o_wb_ack" style="text;html=1;align=center;verticalAlign=middle;resizable=0;points=[];autosize=1;strokeColor=none;fillColor=none;" parent="1" vertex="1">
                    <mxGeometry x="345" y="214" width="80" height="30" as="geometry"/>
                </mxCell>
                <mxCell id="103" value="o_reg_we" style="text;html=1;align=center;verticalAlign=middle;resizable=0;points=[];autosize=1;strokeColor=none;fillColor=none;" parent="1" vertex="1">
                    <mxGeometry x="345" y="130" width="80" height="30" as="geometry"/>
                </mxCell>
                <mxCell id="181" value="" style="group" parent="1" vertex="1" connectable="0">
                    <mxGeometry x="442.5" y="67.5" width="257.5" height="155" as="geometry"/>
                </mxCell>
                <mxCell id="178" value="" style="group" parent="181" vertex="1" connectable="0">
                    <mxGeometry width="257.5" height="155" as="geometry"/>
                </mxCell>
                <mxCell id="162" value="" style="group;fillColor=#d5e8d4;strokeColor=#82b366;container=0;" parent="178" vertex="1" connectable="0">
                    <mxGeometry width="255" height="155" as="geometry"/>
                </mxCell>
                <mxCell id="94" value="i_clk" style="text;html=1;align=center;verticalAlign=middle;resizable=0;points=[];autosize=1;strokeColor=none;fillColor=none;" parent="178" vertex="1">
                    <mxGeometry width="50" height="30" as="geometry"/>
                </mxCell>
                <mxCell id="98" value="i_rst" style="text;html=1;align=center;verticalAlign=middle;resizable=0;points=[];autosize=1;strokeColor=none;fillColor=none;" parent="178" vertex="1">
                    <mxGeometry y="23" width="50" height="30" as="geometry"/>
                </mxCell>
                <mxCell id="155" value="wrEN" style="text;html=1;align=center;verticalAlign=middle;resizable=0;points=[];autosize=1;strokeColor=none;fillColor=none;" parent="178" vertex="1">
                    <mxGeometry y="62.5" width="50" height="30" as="geometry"/>
                </mxCell>
                <mxCell id="156" value="" style="group" parent="178" vertex="1" connectable="0">
                    <mxGeometry x="25" y="100" width="44.99999999999983" height="40" as="geometry"/>
                </mxCell>
                <mxCell id="157" value="" style="endArrow=none;html=1;exitX=0.004;exitY=0.577;exitDx=0;exitDy=0;exitPerimeter=0;entryX=1.003;entryY=0.475;entryDx=0;entryDy=0;entryPerimeter=0;" parent="156" edge="1">
                    <mxGeometry width="50" height="50" relative="1" as="geometry">
                        <mxPoint x="44.99999999999983" y="26.779999999999973" as="sourcePoint"/>
                        <mxPoint x="10.439999999999884" y="27.21999999999997" as="targetPoint"/>
                    </mxGeometry>
                </mxCell>
                <mxCell id="158" value="16" style="text;html=1;align=center;verticalAlign=middle;resizable=0;points=[];autosize=1;strokeColor=none;fillColor=none;imageWidth=20;imageHeight=20;" parent="156" vertex="1">
                    <mxGeometry width="40" height="30" as="geometry"/>
                </mxCell>
                <mxCell id="159" value="" style="endArrow=none;html=1;" parent="156" edge="1">
                    <mxGeometry width="50" height="50" relative="1" as="geometry">
                        <mxPoint x="21" y="32" as="sourcePoint"/>
                        <mxPoint x="31" y="22" as="targetPoint"/>
                    </mxGeometry>
                </mxCell>
                <mxCell id="161" value="i_data" style="text;html=1;align=center;verticalAlign=middle;resizable=0;points=[];autosize=1;strokeColor=none;fillColor=none;" parent="156" vertex="1">
                    <mxGeometry x="-35" y="10" width="60" height="30" as="geometry"/>
                </mxCell>
                <mxCell id="177" value="" style="group" parent="178" vertex="1" connectable="0">
                    <mxGeometry x="165" y="45" width="92.5" height="35" as="geometry"/>
                </mxCell>
                <mxCell id="168" value="" style="group" parent="177" vertex="1" connectable="0">
                    <mxGeometry width="44.99999999999983" height="32" as="geometry"/>
                </mxCell>
                <mxCell id="169" value="" style="endArrow=none;html=1;exitX=0.004;exitY=0.577;exitDx=0;exitDy=0;exitPerimeter=0;entryX=1.003;entryY=0.475;entryDx=0;entryDy=0;entryPerimeter=0;" parent="168" edge="1">
                    <mxGeometry width="50" height="50" relative="1" as="geometry">
                        <mxPoint x="44.99999999999983" y="26.779999999999973" as="sourcePoint"/>
                        <mxPoint x="10.439999999999884" y="27.21999999999997" as="targetPoint"/>
                    </mxGeometry>
                </mxCell>
                <mxCell id="170" value="16" style="text;html=1;align=center;verticalAlign=middle;resizable=0;points=[];autosize=1;strokeColor=none;fillColor=none;imageWidth=20;imageHeight=20;" parent="168" vertex="1">
                    <mxGeometry width="40" height="30" as="geometry"/>
                </mxCell>
                <mxCell id="171" value="" style="endArrow=none;html=1;" parent="168" edge="1">
                    <mxGeometry width="50" height="50" relative="1" as="geometry">
                        <mxPoint x="21" y="32" as="sourcePoint"/>
                        <mxPoint x="31" y="22" as="targetPoint"/>
                    </mxGeometry>
                </mxCell>
                <mxCell id="172" value="o_data" style="text;html=1;align=center;verticalAlign=middle;resizable=0;points=[];autosize=1;strokeColor=none;fillColor=none;" parent="177" vertex="1">
                    <mxGeometry x="32.5" y="5" width="60" height="30" as="geometry"/>
                </mxCell>
                <mxCell id="93" value="" style="endArrow=none;html=1;entryX=0.033;entryY=0.497;entryDx=0;entryDy=0;entryPerimeter=0;" parent="178" source="94" target="53" edge="1">
                    <mxGeometry width="50" height="50" relative="1" as="geometry">
                        <mxPoint x="33.01999999999998" y="15" as="sourcePoint"/>
                        <mxPoint x="60" y="15" as="targetPoint"/>
                    </mxGeometry>
                </mxCell>
                <mxCell id="97" value="" style="endArrow=none;html=1;entryX=0.015;entryY=0.482;entryDx=0;entryDy=0;entryPerimeter=0;" parent="178" source="98" target="54" edge="1">
                    <mxGeometry width="50" height="50" relative="1" as="geometry">
                        <mxPoint x="33.01999999999998" y="38.5" as="sourcePoint"/>
                        <mxPoint x="60" y="38.5" as="targetPoint"/>
                    </mxGeometry>
                </mxCell>
                <mxCell id="154" value="" style="endArrow=none;html=1;entryX=0.083;entryY=0.524;entryDx=0;entryDy=0;entryPerimeter=0;" parent="178" source="155" target="48" edge="1">
                    <mxGeometry width="50" height="50" relative="1" as="geometry">
                        <mxPoint x="55" y="70" as="sourcePoint"/>
                        <mxPoint x="72" y="77.38999999999999" as="targetPoint"/>
                    </mxGeometry>
                </mxCell>
                <mxCell id="182" value="" style="group" parent="178" vertex="1" connectable="0">
                    <mxGeometry width="185" height="155" as="geometry"/>
                </mxCell>
                <mxCell id="180" value="" style="group" parent="182" vertex="1" connectable="0">
                    <mxGeometry width="185" height="155" as="geometry"/>
                </mxCell>
                <mxCell id="134" value="" style="group" parent="180" vertex="1" connectable="0">
                    <mxGeometry x="65" width="120" height="155" as="geometry"/>
                </mxCell>
                <mxCell id="48" value="4x16 regfile&amp;nbsp;" style="shape=parallelogram;perimeter=parallelogramPerimeter;whiteSpace=wrap;html=1;fixedSize=1;fillColor=#d5e8d4;strokeColor=#82b366;" parent="134" vertex="1">
                    <mxGeometry width="120" height="150" as="geometry"/>
                </mxCell>
                <mxCell id="53" value="CTRL reg [0]" style="text;html=1;align=center;verticalAlign=middle;resizable=0;points=[];autosize=1;strokeColor=none;fillColor=none;fontStyle=0;fontColor=light-dark(#8b8484, #ededed);" parent="134" vertex="1">
                    <mxGeometry x="15" width="90" height="30" as="geometry"/>
                </mxCell>
                <mxCell id="54" value="divisor reg[2]" style="text;html=1;align=center;verticalAlign=middle;resizable=0;points=[];autosize=1;strokeColor=none;fillColor=none;fontStyle=0;fontColor=light-dark(#8b8484, #ededed);" parent="134" vertex="1">
                    <mxGeometry x="15" y="23" width="90" height="30" as="geometry"/>
                </mxCell>
                <mxCell id="55" value="period reg [4]" style="text;html=1;align=center;verticalAlign=middle;resizable=0;points=[];autosize=1;strokeColor=none;fillColor=none;fontStyle=0;fontColor=light-dark(#8b8484, #ededed);" parent="134" vertex="1">
                    <mxGeometry x="10" y="95" width="90" height="30" as="geometry"/>
                </mxCell>
                <mxCell id="56" value="duty reg [6]" style="text;html=1;align=center;verticalAlign=middle;resizable=0;points=[];autosize=1;strokeColor=none;fillColor=none;fontStyle=0;fontColor=light-dark(#8b8484, #ededed);" parent="134" vertex="1">
                    <mxGeometry x="10" y="125" width="80" height="30" as="geometry"/>
                </mxCell>
                <mxCell id="49" value="" style="endArrow=none;html=1;entryX=0.979;entryY=0.16;entryDx=0;entryDy=0;entryPerimeter=0;exitX=0.138;exitY=0.157;exitDx=0;exitDy=0;exitPerimeter=0;" parent="134" source="48" target="48" edge="1">
                    <mxGeometry width="50" height="50" relative="1" as="geometry">
                        <mxPoint x="80" y="-151.5" as="sourcePoint"/>
                        <mxPoint x="130" y="-201.5" as="targetPoint"/>
                    </mxGeometry>
                </mxCell>
                <mxCell id="50" value="" style="endArrow=none;html=1;entryX=0.948;entryY=0.299;entryDx=0;entryDy=0;entryPerimeter=0;exitX=0.112;exitY=0.298;exitDx=0;exitDy=0;exitPerimeter=0;" parent="134" source="48" target="48" edge="1">
                    <mxGeometry width="50" height="50" relative="1" as="geometry">
                        <mxPoint x="70" y="-161.5" as="sourcePoint"/>
                        <mxPoint x="160" y="-161.5" as="targetPoint"/>
                    </mxGeometry>
                </mxCell>
                <mxCell id="51" value="" style="endArrow=none;html=1;entryX=0.891;entryY=0.631;entryDx=0;entryDy=0;entryPerimeter=0;exitX=0.065;exitY=0.632;exitDx=0;exitDy=0;exitPerimeter=0;" parent="134" source="48" target="48" edge="1">
                    <mxGeometry width="50" height="50" relative="1" as="geometry">
                        <mxPoint x="60" y="-111.5" as="sourcePoint"/>
                        <mxPoint x="150" y="-111.5" as="targetPoint"/>
                    </mxGeometry>
                </mxCell>
                <mxCell id="52" value="" style="endArrow=none;html=1;entryX=0.853;entryY=0.833;entryDx=0;entryDy=0;entryPerimeter=0;exitX=0.033;exitY=0.832;exitDx=0;exitDy=0;exitPerimeter=0;" parent="134" source="48" target="48" edge="1">
                    <mxGeometry width="50" height="50" relative="1" as="geometry">
                        <mxPoint x="60" y="-81.5" as="sourcePoint"/>
                        <mxPoint x="150" y="-81.5" as="targetPoint"/>
                    </mxGeometry>
                </mxCell>
                <mxCell id="153" value="rdEN" style="text;html=1;align=center;verticalAlign=middle;resizable=0;points=[];autosize=1;strokeColor=none;fillColor=none;" parent="180" vertex="1">
                    <mxGeometry y="47.5" width="50" height="30" as="geometry"/>
                </mxCell>
                <mxCell id="104" value="" style="endArrow=none;html=1;entryX=0.091;entryY=0.409;entryDx=0;entryDy=0;entryPerimeter=0;exitX=0.978;exitY=0.48;exitDx=0;exitDy=0;exitPerimeter=0;" parent="180" source="153" target="48" edge="1">
                    <mxGeometry width="50" height="50" relative="1" as="geometry">
                        <mxPoint x="45" y="220" as="sourcePoint"/>
                        <mxPoint x="87.00000000000023" y="213" as="targetPoint"/>
                    </mxGeometry>
                </mxCell>
                <mxCell id="160" value="adr" style="text;html=1;align=center;verticalAlign=middle;resizable=0;points=[];autosize=1;strokeColor=none;fillColor=none;" parent="182" vertex="1">
                    <mxGeometry y="90" width="40" height="30" as="geometry"/>
                </mxCell>
                <mxCell id="130" value="" style="group" parent="181" vertex="1" connectable="0">
                    <mxGeometry x="25" y="80" width="45" height="31.5" as="geometry"/>
                </mxCell>
                <mxCell id="131" value="" style="endArrow=none;html=1;exitX=0.004;exitY=0.577;exitDx=0;exitDy=0;exitPerimeter=0;entryX=1.003;entryY=0.475;entryDx=0;entryDy=0;entryPerimeter=0;" parent="130" edge="1">
                    <mxGeometry width="50" height="50" relative="1" as="geometry">
                        <mxPoint x="45" y="26.361562499999973" as="sourcePoint"/>
                        <mxPoint x="10.439999999999923" y="26.79468749999997" as="targetPoint"/>
                    </mxGeometry>
                </mxCell>
                <mxCell id="132" value="16" style="text;html=1;align=center;verticalAlign=middle;resizable=0;points=[];autosize=1;strokeColor=none;fillColor=none;imageWidth=20;imageHeight=20;" parent="130" vertex="1">
                    <mxGeometry width="40" height="30" as="geometry"/>
                </mxCell>
                <mxCell id="133" value="" style="endArrow=none;html=1;" parent="130" edge="1">
                    <mxGeometry width="50" height="50" relative="1" as="geometry">
                        <mxPoint x="21.000000000000078" y="31.5" as="sourcePoint"/>
                        <mxPoint x="31.000000000000117" y="21.65625" as="targetPoint"/>
                    </mxGeometry>
                </mxCell>
                <mxCell id="184" value="i_reg_data" style="text;html=1;align=center;verticalAlign=middle;whiteSpace=wrap;rounded=0;" parent="1" vertex="1">
                    <mxGeometry x="130" y="19" width="60" height="30" as="geometry"/>
                </mxCell>
                <mxCell id="187" value="" style="endArrow=none;html=1;exitX=1;exitY=0.75;exitDx=0;exitDy=0;entryX=0.602;entryY=-0.047;entryDx=0;entryDy=0;entryPerimeter=0;" parent="1" source="184" target="172" edge="1">
                    <mxGeometry width="50" height="50" relative="1" as="geometry">
                        <mxPoint x="280.02" y="40" as="sourcePoint"/>
                        <mxPoint x="589.9835922330094" y="-156" as="targetPoint"/>
                        <Array as="points">
                            <mxPoint x="676" y="40"/>
                        </Array>
                    </mxGeometry>
                </mxCell>
                <mxCell id="188" value="" style="endArrow=none;html=1;entryX=0.5;entryY=1;entryDx=0;entryDy=0;exitX=0.25;exitY=0;exitDx=0;exitDy=0;" parent="1" source="85" target="184" edge="1">
                    <mxGeometry width="50" height="50" relative="1" as="geometry">
                        <mxPoint x="160" y="100" as="sourcePoint"/>
                        <mxPoint x="210" y="50" as="targetPoint"/>
                    </mxGeometry>
                </mxCell>
                <mxCell id="189" value="o_reg_data" style="text;html=1;align=center;verticalAlign=middle;resizable=0;points=[];autosize=1;strokeColor=none;fillColor=none;" parent="1" vertex="1">
                    <mxGeometry x="342.5" y="182" width="80" height="30" as="geometry"/>
                </mxCell>
                <mxCell id="190" value="" style="group" parent="1" vertex="1" connectable="0">
                    <mxGeometry x="300" y="176" width="44.99999999999983" height="32" as="geometry"/>
                </mxCell>
                <mxCell id="191" value="" style="endArrow=none;html=1;exitX=0.004;exitY=0.577;exitDx=0;exitDy=0;exitPerimeter=0;entryX=1.003;entryY=0.475;entryDx=0;entryDy=0;entryPerimeter=0;" parent="190" edge="1">
                    <mxGeometry width="50" height="50" relative="1" as="geometry">
                        <mxPoint x="44.99999999999983" y="26.779999999999973" as="sourcePoint"/>
                        <mxPoint x="10.439999999999884" y="27.21999999999997" as="targetPoint"/>
                    </mxGeometry>
                </mxCell>
                <mxCell id="192" value="16" style="text;html=1;align=center;verticalAlign=middle;resizable=0;points=[];autosize=1;strokeColor=none;fillColor=none;imageWidth=20;imageHeight=20;" parent="190" vertex="1">
                    <mxGeometry width="40" height="30" as="geometry"/>
                </mxCell>
                <mxCell id="193" value="" style="endArrow=none;html=1;" parent="190" edge="1">
                    <mxGeometry width="50" height="50" relative="1" as="geometry">
                        <mxPoint x="21" y="32" as="sourcePoint"/>
                        <mxPoint x="31" y="22" as="targetPoint"/>
                    </mxGeometry>
                </mxCell>
                <mxCell id="217" value="" style="group;fillColor=#dae8fc;strokeColor=#6c8ebf;" parent="1" vertex="1" connectable="0">
                    <mxGeometry x="70" y="430" width="300" height="175" as="geometry"/>
                </mxCell>
                <mxCell id="211" value="clk" style="text;html=1;align=center;verticalAlign=middle;resizable=0;points=[];autosize=1;strokeColor=none;fillColor=none;" parent="217" vertex="1">
                    <mxGeometry x="260" y="73.31" width="40" height="30" as="geometry"/>
                </mxCell>
                <mxCell id="212" value="" style="endArrow=none;html=1;entryX=0.998;entryY=0.515;entryDx=0;entryDy=0;entryPerimeter=0;exitX=0.021;exitY=0.569;exitDx=0;exitDy=0;exitPerimeter=0;" parent="217" source="211" target="143" edge="1">
                    <mxGeometry width="50" height="50" relative="1" as="geometry">
                        <mxPoint x="260" y="90" as="sourcePoint"/>
                        <mxPoint x="330" y="60.15625" as="targetPoint"/>
                    </mxGeometry>
                </mxCell>
                <mxCell id="216" value="" style="group" parent="217" vertex="1" connectable="0">
                    <mxGeometry width="250" height="175" as="geometry"/>
                </mxCell>
                <mxCell id="143" value="clk down" style="whiteSpace=wrap;html=1;aspect=fixed;fillColor=#dae8fc;strokeColor=#6c8ebf;" parent="216" vertex="1">
                    <mxGeometry x="104" y="15.3125" width="146" height="146" as="geometry"/>
                </mxCell>
                <mxCell id="194" value="Mux" style="shadow=0;dashed=0;align=center;html=1;strokeWidth=1;shape=mxgraph.electrical.abstract.mux2;whiteSpace=wrap;" parent="216" vertex="1">
                    <mxGeometry x="59" y="5.46875" width="45" height="65.625" as="geometry"/>
                </mxCell>
                <mxCell id="195" value="i_clk" style="text;html=1;align=center;verticalAlign=middle;resizable=0;points=[];autosize=1;strokeColor=none;fillColor=none;" parent="216" vertex="1">
                    <mxGeometry x="20" width="50" height="30" as="geometry"/>
                </mxCell>
                <mxCell id="196" value="i_ext_clk" style="text;html=1;align=center;verticalAlign=middle;resizable=0;points=[];autosize=1;strokeColor=none;fillColor=none;" parent="216" vertex="1">
                    <mxGeometry y="21.875" width="70" height="30" as="geometry"/>
                </mxCell>
                <mxCell id="197" value="ctrl[0]" style="text;html=1;align=center;verticalAlign=middle;resizable=0;points=[];autosize=1;strokeColor=none;fillColor=none;" parent="216" vertex="1">
                    <mxGeometry x="45" y="60.15625" width="50" height="30" as="geometry"/>
                </mxCell>
                <mxCell id="198" value="" style="endArrow=none;html=1;entryX=-0.001;entryY=0.631;entryDx=0;entryDy=0;exitX=0.96;exitY=0.49;exitDx=0;exitDy=0;exitPerimeter=0;entryPerimeter=0;" parent="216" source="199" target="143" edge="1">
                    <mxGeometry width="50" height="50" relative="1" as="geometry">
                        <mxPoint x="45" y="150.9375" as="sourcePoint"/>
                        <mxPoint x="104" y="106.09375000000013" as="targetPoint"/>
                    </mxGeometry>
                </mxCell>
                <mxCell id="199" value="i_rst" style="text;html=1;align=center;verticalAlign=middle;resizable=0;points=[];autosize=1;strokeColor=none;fillColor=none;" parent="216" vertex="1">
                    <mxGeometry x="40" y="92.96875" width="50" height="30" as="geometry"/>
                </mxCell>
                <mxCell id="210" value="" style="group" parent="216" vertex="1" connectable="0">
                    <mxGeometry x="10" y="125.78125" width="94" height="36.09375" as="geometry"/>
                </mxCell>
                <mxCell id="208" value="" style="group" parent="210" vertex="1" connectable="0">
                    <mxGeometry x="70" width="24" height="32.8125" as="geometry"/>
                </mxCell>
                <mxCell id="202" value="&lt;font style=&quot;font-size: 6px; color: rgb(0, 0, 0);&quot;&gt;16&lt;/font&gt;" style="text;html=1;align=center;verticalAlign=middle;resizable=0;points=[];autosize=1;strokeColor=none;fillColor=none;imageWidth=20;imageHeight=20;" parent="208" vertex="1">
                    <mxGeometry width="30" height="30" as="geometry"/>
                </mxCell>
                <mxCell id="201" value="" style="endArrow=none;html=1;exitX=0.004;exitY=0.577;exitDx=0;exitDy=0;exitPerimeter=0;entryX=1.003;entryY=0.475;entryDx=0;entryDy=0;entryPerimeter=0;" parent="208" edge="1">
                    <mxGeometry width="50" height="50" relative="1" as="geometry">
                        <mxPoint x="24" y="23.268619791666705" as="sourcePoint"/>
                        <mxPoint x="10.346666666666646" y="23.489192708333295" as="targetPoint"/>
                    </mxGeometry>
                </mxCell>
                <mxCell id="203" value="" style="endArrow=none;html=1;" parent="208" edge="1">
                    <mxGeometry width="50" height="50" relative="1" as="geometry">
                        <mxPoint x="16.030518518518544" y="25.885416666666625" as="sourcePoint"/>
                        <mxPoint x="19.981135802469193" y="20.872395833333375" as="targetPoint"/>
                    </mxGeometry>
                </mxCell>
                <mxCell id="209" value="i_reg_divisor" style="text;html=1;align=center;verticalAlign=middle;resizable=0;points=[];autosize=1;strokeColor=none;fillColor=none;" parent="210" vertex="1">
                    <mxGeometry y="3.28125" width="90" height="30" as="geometry"/>
                </mxCell>
                <mxCell id="259" value="" style="group;fillColor=#f8cecc;strokeColor=#b85450;" parent="1" vertex="1" connectable="0">
                    <mxGeometry x="415" y="460" width="312.5" height="200" as="geometry"/>
                </mxCell>
                <mxCell id="228" value="i_rst" style="text;html=1;align=center;verticalAlign=middle;resizable=0;points=[];autosize=1;strokeColor=none;fillColor=none;" parent="259" vertex="1">
                    <mxGeometry x="25" y="74.44444444444444" width="50" height="30" as="geometry"/>
                </mxCell>
                <mxCell id="229" value="" style="endArrow=none;html=1;entryX=1;entryY=1;entryDx=0;entryDy=0;exitX=1.043;exitY=0.504;exitDx=0;exitDy=0;exitPerimeter=0;" parent="259" source="228" target="220" edge="1">
                    <mxGeometry width="50" height="50" relative="1" as="geometry">
                        <mxPoint x="35" y="34.44444444444444" as="sourcePoint"/>
                        <mxPoint x="95" y="87.77777777777779" as="targetPoint"/>
                    </mxGeometry>
                </mxCell>
                <mxCell id="263" value="" style="group" parent="259" vertex="1" connectable="0">
                    <mxGeometry width="312.5" height="200" as="geometry"/>
                </mxCell>
                <mxCell id="258" value="" style="group" parent="263" vertex="1" connectable="0">
                    <mxGeometry width="312.5" height="200" as="geometry"/>
                </mxCell>
                <mxCell id="223" value="i_DC" style="text;html=1;align=center;verticalAlign=middle;whiteSpace=wrap;rounded=0;" parent="258" vertex="1">
                    <mxGeometry y="24.444444444444446" width="60" height="33.333333333333336" as="geometry"/>
                </mxCell>
                <mxCell id="224" value="duty_reg" style="text;html=1;align=center;verticalAlign=middle;whiteSpace=wrap;rounded=0;" parent="258" vertex="1">
                    <mxGeometry width="50" height="27.77777777777778" as="geometry"/>
                </mxCell>
                <mxCell id="257" value="" style="group" parent="258" vertex="1" connectable="0">
                    <mxGeometry x="15" width="297.5" height="200" as="geometry"/>
                </mxCell>
                <mxCell id="221" value="" style="endArrow=none;html=1;entryX=-0.002;entryY=0.91;entryDx=0;entryDy=0;entryPerimeter=0;" parent="257" target="62" edge="1">
                    <mxGeometry width="50" height="50" relative="1" as="geometry">
                        <mxPoint x="64" y="182.22222222222223" as="sourcePoint"/>
                        <mxPoint x="20" y="18.88888888888889" as="targetPoint"/>
                    </mxGeometry>
                </mxCell>
                <mxCell id="256" value="" style="group" parent="257" vertex="1" connectable="0">
                    <mxGeometry width="297.5" height="200" as="geometry"/>
                </mxCell>
                <mxCell id="71" value="ctrl[1]" style="text;html=1;align=center;verticalAlign=middle;resizable=0;points=[];autosize=1;strokeColor=none;fillColor=none;" parent="256" vertex="1">
                    <mxGeometry x="15" y="166.66666666666669" width="50" height="30" as="geometry"/>
                </mxCell>
                <mxCell id="218" value="Mux" style="shadow=0;dashed=0;align=center;html=1;strokeWidth=1;shape=mxgraph.electrical.abstract.mux2;whiteSpace=wrap;" parent="256" vertex="1">
                    <mxGeometry x="35" width="45" height="66.66666666666667" as="geometry"/>
                </mxCell>
                <mxCell id="66" value="duty" style="text;html=1;align=center;verticalAlign=middle;resizable=0;points=[];autosize=1;strokeColor=none;fillColor=none;fontColor=#999999;" parent="256" vertex="1">
                    <mxGeometry x="75" y="7.777777777777779" width="50" height="30" as="geometry"/>
                </mxCell>
                <mxCell id="69" value="EN" style="text;html=1;align=center;verticalAlign=middle;resizable=0;points=[];autosize=1;strokeColor=none;fillColor=none;fontColor=#999999;" parent="256" vertex="1">
                    <mxGeometry x="80" y="163.33333333333334" width="40" height="30" as="geometry"/>
                </mxCell>
                <mxCell id="230" value="main counter EN" style="text;html=1;align=center;verticalAlign=middle;resizable=0;points=[];autosize=1;strokeColor=none;fillColor=none;fontColor=#999999;" parent="256" vertex="1">
                    <mxGeometry x="75" y="141.11111111111111" width="110" height="30" as="geometry"/>
                </mxCell>
                <mxCell id="74" value="clk" style="text;html=1;align=center;verticalAlign=middle;resizable=0;points=[];autosize=1;strokeColor=none;fillColor=none;imageHeight=20;" parent="256" vertex="1">
                    <mxGeometry x="25" y="91.11111111111111" width="40" height="30" as="geometry"/>
                </mxCell>
                <mxCell id="250" value="" style="endArrow=none;html=1;exitX=0.942;exitY=0.495;exitDx=0;exitDy=0;exitPerimeter=0;" parent="256" source="74" edge="1">
                    <mxGeometry width="50" height="50" relative="1" as="geometry">
                        <mxPoint x="20" y="141.11111111111111" as="sourcePoint"/>
                        <mxPoint x="79.5" y="106" as="targetPoint"/>
                    </mxGeometry>
                </mxCell>
                <mxCell id="225" value="" style="endArrow=none;html=1;fontSize=4;entryX=0.016;entryY=0.451;entryDx=0;entryDy=0;entryPerimeter=0;exitX=0.827;exitY=0.463;exitDx=0;exitDy=0;exitPerimeter=0;" parent="256" source="218" target="66" edge="1">
                    <mxGeometry width="50" height="50" relative="1" as="geometry">
                        <mxPoint x="70" y="30.555555555555557" as="sourcePoint"/>
                        <mxPoint x="80" y="27.222222222222225" as="targetPoint"/>
                    </mxGeometry>
                </mxCell>
                <mxCell id="262" value="" style="group" parent="256" vertex="1" connectable="0">
                    <mxGeometry width="242" height="200" as="geometry"/>
                </mxCell>
                <mxCell id="261" value="" style="group" parent="262" vertex="1" connectable="0">
                    <mxGeometry width="242" height="200" as="geometry"/>
                </mxCell>
                <mxCell id="260" value="" style="group" parent="261" vertex="1" connectable="0">
                    <mxGeometry width="242" height="200" as="geometry"/>
                </mxCell>
                <mxCell id="62" value="pwm" style="whiteSpace=wrap;html=1;fillColor=#f8cecc;strokeColor=#b85450;" parent="260" vertex="1">
                    <mxGeometry x="80" width="162" height="200" as="geometry"/>
                </mxCell>
                <mxCell id="246" value="" style="group" parent="260" vertex="1" connectable="0">
                    <mxGeometry y="107.77777777777779" width="80" height="33.333333333333336" as="geometry"/>
                </mxCell>
                <mxCell id="237" value="" style="group" parent="246" vertex="1" connectable="0">
                    <mxGeometry x="50" width="30" height="33.333333333333336" as="geometry"/>
                </mxCell>
                <mxCell id="238" value="&lt;font style=&quot;font-size: 6px; color: rgb(0, 0, 0);&quot;&gt;16&lt;/font&gt;" style="text;html=1;align=center;verticalAlign=middle;resizable=0;points=[];autosize=1;strokeColor=none;fillColor=none;imageWidth=20;imageHeight=20;" parent="237" vertex="1">
                    <mxGeometry width="30" height="30" as="geometry"/>
                </mxCell>
                <mxCell id="239" value="" style="endArrow=none;html=1;exitX=0.004;exitY=0.577;exitDx=0;exitDy=0;exitPerimeter=0;entryX=1.003;entryY=0.475;entryDx=0;entryDy=0;entryPerimeter=0;" parent="237" edge="1">
                    <mxGeometry width="50" height="50" relative="1" as="geometry">
                        <mxPoint x="30" y="23.637962962963" as="sourcePoint"/>
                        <mxPoint x="12.933333333333307" y="23.862037037037" as="targetPoint"/>
                    </mxGeometry>
                </mxCell>
                <mxCell id="240" value="" style="endArrow=none;html=1;" parent="237" edge="1">
                    <mxGeometry width="50" height="50" relative="1" as="geometry">
                        <mxPoint x="20.03814814814818" y="26.296296296296255" as="sourcePoint"/>
                        <mxPoint x="24.97641975308649" y="21.203703703703745" as="targetPoint"/>
                    </mxGeometry>
                </mxCell>
                <mxCell id="245" value="period_reg" style="text;html=1;align=center;verticalAlign=middle;whiteSpace=wrap;rounded=0;" parent="246" vertex="1">
                    <mxGeometry y="5.555555555555555" width="60" height="27.77777777777778" as="geometry"/>
                </mxCell>
                <mxCell id="264" value="duty" style="text;html=1;align=center;verticalAlign=middle;whiteSpace=wrap;rounded=0;fontColor=light-dark(#a8a4a4, #ededed);" parent="260" vertex="1">
                    <mxGeometry x="75" y="11.11111111111111" width="60" height="33.333333333333336" as="geometry"/>
                </mxCell>
                <mxCell id="265" value="main counter EN" style="text;html=1;align=center;verticalAlign=middle;whiteSpace=wrap;rounded=0;fontColor=light-dark(#a8a4a4, #ededed);" parent="260" vertex="1">
                    <mxGeometry x="80" y="146.67111111111112" width="95" height="33.333333333333336" as="geometry"/>
                </mxCell>
                <mxCell id="266" value="EN" style="text;html=1;align=center;verticalAlign=middle;whiteSpace=wrap;rounded=0;fontColor=light-dark(#a8a4a4, #ededed);" parent="260" vertex="1">
                    <mxGeometry x="75" y="166.66666666666669" width="60" height="33.333333333333336" as="geometry"/>
                </mxCell>
                <mxCell id="226" value="16" style="text;html=1;align=center;verticalAlign=middle;whiteSpace=wrap;rounded=0;fontSize=5;" parent="262" vertex="1">
                    <mxGeometry x="70" y="11.11111111111111" width="10" height="5.555555555555555" as="geometry"/>
                </mxCell>
                <mxCell id="231" value="ctrl[2]" style="text;html=1;align=center;verticalAlign=middle;resizable=0;points=[];autosize=1;strokeColor=none;fillColor=none;" parent="256" vertex="1">
                    <mxGeometry x="15" y="150.00111111111113" width="50" height="30" as="geometry"/>
                </mxCell>
                <mxCell id="232" value="" style="endArrow=none;html=1;entryX=-0.002;entryY=0.58;entryDx=0;entryDy=0;exitX=0.971;exitY=0.545;exitDx=0;exitDy=0;exitPerimeter=0;entryPerimeter=0;" parent="256" edge="1" target="265" source="231">
                    <mxGeometry width="50" height="50" relative="1" as="geometry">
                        <mxPoint x="64" y="156.66666666666669" as="sourcePoint"/>
                        <mxPoint x="80" y="156.66666666666669" as="targetPoint"/>
                    </mxGeometry>
                </mxCell>
                <mxCell id="303" value="i_DC_valid" style="text;html=1;align=center;verticalAlign=middle;whiteSpace=wrap;rounded=0;" vertex="1" parent="256">
                    <mxGeometry y="138.33" width="60" height="25" as="geometry"/>
                </mxCell>
                <mxCell id="302" value="" style="endArrow=none;html=1;entryX=1.024;entryY=0.461;entryDx=0;entryDy=0;entryPerimeter=0;exitX=0;exitY=0.75;exitDx=0;exitDy=0;" edge="1" parent="256" source="62" target="303">
                    <mxGeometry width="50" height="50" relative="1" as="geometry">
                        <mxPoint x="47.5" y="110" as="sourcePoint"/>
                        <mxPoint x="97.5" y="60" as="targetPoint"/>
                    </mxGeometry>
                </mxCell>
                <mxCell id="220" value="ctrl[6]" style="text;html=1;align=center;verticalAlign=middle;whiteSpace=wrap;rounded=0;" parent="263" vertex="1">
                    <mxGeometry x="35" y="55.55555555555556" width="60" height="33.333333333333336" as="geometry"/>
                </mxCell>
                <mxCell id="247" value="o_pwm" style="text;html=1;align=center;verticalAlign=middle;resizable=0;points=[];autosize=1;strokeColor=none;fillColor=none;" parent="259" vertex="1">
                    <mxGeometry x="252.5" y="109.99666666666667" width="60" height="30" as="geometry"/>
                </mxCell>
                <mxCell id="72" value="" style="endArrow=none;html=1;entryX=0;entryY=0.5499999999999999;entryDx=0;entryDy=3;entryPerimeter=0;exitX=1;exitY=0.584;exitDx=0;exitDy=0;exitPerimeter=0;" parent="1" source="62" target="68" edge="1">
                    <mxGeometry width="50" height="50" relative="1" as="geometry">
                        <mxPoint x="440" y="330" as="sourcePoint"/>
                        <mxPoint x="490" y="280" as="targetPoint"/>
                        <Array as="points">
                            <mxPoint x="695" y="577"/>
                        </Array>
                    </mxGeometry>
                </mxCell>
                <mxCell id="305" value="" style="group" vertex="1" connectable="0" parent="1">
                    <mxGeometry x="690" y="370" width="50" height="80" as="geometry"/>
                </mxCell>
                <mxCell id="68" value="Mux" style="shadow=0;dashed=0;align=center;html=1;strokeWidth=1;shape=mxgraph.electrical.abstract.mux2;whiteSpace=wrap;" parent="305" vertex="1">
                    <mxGeometry x="5" width="45" height="60" as="geometry"/>
                </mxCell>
                <mxCell id="75" value="ctrl[1]" style="text;html=1;align=center;verticalAlign=middle;resizable=0;points=[];autosize=1;strokeColor=none;fillColor=none;fontSize=11;" parent="305" vertex="1">
                    <mxGeometry y="50" width="50" height="30" as="geometry"/>
                </mxCell>
            </root>
        </mxGraphModel>
    </diagram>
</mxfile>